<svg width="260" height="260" viewBox="0 0 260 260" fill="none" xmlns="http://www.w3.org/2000/svg">
  <defs>
    <linearGradient id="bg-esfp" x1="40" y1="30" x2="230" y2="230" gradientUnits="userSpaceOnUse">
      <stop stop-color="#f97316" stop-opacity="0.95"/>
      <stop offset="1" stop-color="#fb923c" stop-opacity="0.95"/>
    </linearGradient>
    <linearGradient id="body-esfp" x1="60" y1="120" x2="200" y2="220" gradientUnits="userSpaceOnUse">
      <stop stop-color="white" stop-opacity="0.9"/>
      <stop offset="1" stop-color="white" stop-opacity="0.8"/>
    </linearGradient>
    <filter id="shadow-esfp" x="0" y="0" width="260" height="260" filterUnits="userSpaceOnUse" color-interpolation-filters="sRGB">
      <feDropShadow dx="0" dy="10" stdDeviation="12" flood-opacity="0.18" />
    </filter>
  </defs>
  <rect x="14" y="14" width="232" height="232" rx="34" fill="url(#bg-esfp)"/>
  <g filter="url(#shadow-esfp)">
    <circle cx="130" cy="92" r="50" fill="white" stroke="#f97316" stroke-width="6"/>
    <path d="M80 158C80 129 102 106 130 106C158 106 180 129 180 158V189C180 205 167 218 151 218H109C93 218 80 205 80 189V158Z" fill="url(#body-esfp)" stroke="#f97316" stroke-width="5"/>
    <rect x="96" y="118" width="68" height="18" rx="9" fill="#f97316" fill-opacity="0.08"/>
    <circle cx="114" cy="92" r="7" fill="#f97316"/>
    <circle cx="146" cy="92" r="7" fill="#f97316"/>
    <path d="M116 112C121 118 139 118 144 112" stroke="#f97316" stroke-width="5" stroke-linecap="round"/>
  </g>
  <text x="130" y="242" text-anchor="middle" fill="white" font-family="'Inter', 'Segoe UI', sans-serif" font-size="26" font-weight="800" letter-spacing="2">ESFP</text>
</svg>
